<svg width="80" height="81" viewBox="0 0 80 81" fill="none" xmlns="http://www.w3.org/2000/svg">
<path d="M64.3333 21.5173C67.6666 25.1839 69.6667 29.1839 69.6667 35.8506C69.6667 47.5173 61.3333 57.8506 49.6666 63.1839L46.6666 58.8506C57.6666 52.8506 60 45.1839 60.6667 40.1839C59 41.1839 56.6666 41.5173 54.3333 41.1839C48.3333 40.5173 43.6666 35.8506 43.6666 29.5173C43.6666 26.5173 45 23.5173 47 21.1839C49.3333 18.8506 52 17.8506 55.3333 17.8506C59 17.8506 62.3333 19.5173 64.3333 21.5173ZM31 21.5173C34.3333 25.1839 36.3333 29.1839 36.3333 35.8506C36.3333 47.5173 28 57.8506 16.3333 63.1839L13.3333 58.8506C24.3333 52.8506 26.6666 45.1839 27.3333 40.1839C25.6666 41.1839 23.3333 41.5173 21 41.1839C15 40.5173 10.3333 35.5173 10.3333 29.5173C10.3333 26.5173 11.6666 23.5173 13.6666 21.1839C16 18.8506 18.6666 17.8506 22 17.8506C25.6666 17.8506 29 19.5173 31 21.5173Z" fill="#134A8E"/>
</svg>
