<svg width="80" height="81" viewBox="0 0 80 81" fill="none" xmlns="http://www.w3.org/2000/svg">
<path d="M15.6667 59.5173C12.3333 55.8506 10.3333 51.8506 10.3333 45.1839C10.3333 33.5173 18.6667 23.1839 30.3333 17.8506L33.3333 22.1839C22.3333 28.1839 20 35.8506 19.3333 40.8506C21 39.8506 23.3333 39.5173 25.6667 39.8506C31.6667 40.5173 36.3333 45.1839 36.3333 51.5173C36.3333 54.5173 35 57.5173 33 59.8506C30.6667 62.1839 28 63.1839 24.6667 63.1839C21 63.1839 17.6667 61.5173 15.6667 59.5173ZM49 59.5173C45.6667 55.8506 43.6667 51.8506 43.6667 45.1839C43.6667 33.5173 52 23.1839 63.6667 17.8506L66.6667 22.1839C55.6667 28.1839 53.3333 35.8506 52.6667 40.8506C54.3333 39.8506 56.6667 39.5173 59 39.8506C65 40.5173 69.6667 45.1839 69.6667 51.5173C69.6667 54.5173 68.3333 57.5173 66.3333 59.8506C64.3333 62.1839 61.3333 63.1839 58 63.1839C54.3333 63.1839 51 61.5173 49 59.5173Z" fill="#134A8E"/>
</svg>
