<svg width="81" height="81" viewBox="0 0 81 81" fill="none" xmlns="http://www.w3.org/2000/svg">
<path d="M68.5724 19.3024C68.1802 19.2559 67.3605 19.4793 67.206 18.967C67.1087 18.3049 66.2749 17.4885 66.6966 16.9298L67.3178 16.2962C67.8781 15.737 68.194 14.9786 68.1964 14.1869C68.1987 13.3953 67.8872 12.635 67.3301 12.0726L64.8705 9.61294C64.3083 9.05703 63.5494 8.74525 62.7587 8.74525C61.968 8.74525 61.2092 9.05703 60.6469 9.61294L60.0135 10.2465C59.4924 10.6717 58.5825 9.83024 57.9886 9.7373C57.4641 9.59197 57.6829 8.75044 57.6407 8.37065C57.6384 7.58067 57.3236 6.82371 56.7649 6.26511C56.2063 5.70652 55.4494 5.39169 54.6594 5.3894H51.181C50.3911 5.39171 49.6341 5.70656 49.0755 6.26516C48.5169 6.82377 48.202 7.58074 48.1997 8.37073C48.1532 8.76323 48.3768 9.58243 47.8643 9.73715C47.2285 9.83252 46.3731 10.6712 45.827 10.2466L45.1935 9.62539C44.6343 9.06499 43.8759 8.74903 43.0842 8.7467C42.2926 8.74437 41.5323 9.05586 40.9699 9.61295C40.2956 10.3985 37.9674 12.2607 37.7649 13.3148C37.6031 13.9861 37.6483 14.6907 37.8944 15.3359C38.1406 15.981 38.5761 16.5367 39.1439 16.9297C39.2154 17.0017 39.2632 17.0938 39.281 17.1937C39.2987 17.2936 39.2856 17.3966 39.2432 17.4888C38.8697 17.9885 38.8393 19.2231 38.1626 19.3025L37.268 19.3024C36.478 19.3047 35.7211 19.6195 35.1625 20.1782C34.6039 20.7368 34.289 21.4937 34.2867 22.2837V25.762C34.289 26.552 34.6038 27.309 35.1624 27.8676C35.7211 28.4262 36.478 28.7411 37.268 28.7434C37.6604 28.7894 38.4796 28.5669 38.6344 29.0789C38.7292 29.7226 39.5725 30.5946 39.1439 31.1161C38.7071 31.4323 38.3458 31.8415 38.0859 32.314C37.826 32.7865 37.674 33.3108 37.6408 33.8491C37.5326 35.6627 39.7124 37.0053 40.9699 38.433C41.5336 38.9861 42.2919 39.296 43.0817 39.296C43.8715 39.296 44.6298 38.986 45.1935 38.4328L45.8271 37.7993C46.3347 37.376 47.2636 38.2215 47.8519 38.3085C48.376 38.4629 48.1577 39.2932 48.1997 39.6751C48.202 40.4651 48.5169 41.2221 49.0755 41.7807C49.6341 42.3393 50.3911 42.6542 51.1811 42.6565C55.2929 42.5517 57.1818 43.5522 57.7276 38.5322C58.0769 38.1062 58.9458 38.0345 59.4419 37.7122C59.9141 37.4818 60.1675 38.0083 60.6469 38.4204C61.2062 38.9805 61.9646 39.2963 62.7562 39.2986C63.5477 39.3009 64.308 38.9896 64.8706 38.4328L67.3302 35.9732C67.8848 35.4103 68.1957 34.6517 68.1957 33.8614C68.1957 33.0711 67.8848 32.3125 67.3301 31.7496L66.6967 31.1161C66.2692 30.6008 67.114 29.7013 67.2058 29.0912C67.2384 28.9912 67.3014 28.9039 67.3861 28.8415C67.4708 28.7791 67.5728 28.7448 67.678 28.7434H68.5724C69.3624 28.7411 70.1194 28.4262 70.678 27.8676C71.2366 27.309 71.5515 26.552 71.5538 25.762V22.2838C71.5515 21.4938 71.2366 20.7368 70.678 20.1782C70.1194 19.6196 69.3624 19.3047 68.5724 19.3024ZM52.9202 32.7187C50.6148 32.7161 48.4045 31.7992 46.7743 30.169C45.144 28.5388 44.2271 26.3285 44.2246 24.023C44.6613 12.5028 61.1809 12.506 61.6159 24.0231C61.6134 26.3285 60.6964 28.5388 59.0662 30.169C57.436 31.7992 55.2257 32.7161 52.9202 32.7187Z" fill="#FE9F00"/>
<path d="M54.6598 45.1433H51.1815C49.9681 45.1426 48.7895 44.7381 47.8313 43.9937C46.8732 43.2492 46.1901 42.207 45.8896 41.0314C44.8389 41.6418 43.6168 41.8897 42.4113 41.737C41.2059 41.5844 40.0841 41.0396 39.2188 40.1867L36.7591 37.7271C35.8988 36.8661 35.349 35.7436 35.1961 34.5361C35.0431 33.3286 35.2958 32.1045 35.9144 31.0562C34.7388 30.7558 33.6966 30.0726 32.9521 29.1144C32.2077 28.1563 31.8033 26.9776 31.8027 25.7642V22.286C31.804 21.0677 32.2115 19.8847 32.9607 18.924C33.7099 17.9633 34.758 17.2799 35.9393 16.9817C35.3365 15.9727 35.0711 14.7978 35.1814 13.6277C30.2382 14.4902 25.7556 17.063 22.5174 20.8961C19.2792 24.7293 17.4916 29.5788 17.4672 34.5966C17.5501 36.0028 17.0873 37.3867 16.1751 38.46L8.7342 47.1681C8.59783 47.3304 8.50512 47.5248 8.46481 47.7329C8.42451 47.941 8.43795 48.156 8.50387 48.3574C8.56979 48.5589 8.686 48.7402 8.84152 48.8842C8.99704 49.0283 9.18673 49.1302 9.39265 49.1805L16.3119 50.7955L14.0262 53.0439C13.6755 53.4001 13.4061 53.8281 13.2365 54.2983C13.0669 54.7685 13.0011 55.2698 13.0435 55.7679C13.086 56.266 13.2358 56.7489 13.4827 57.1836C13.7295 57.6183 14.0675 57.9944 14.4734 58.2861L16.051 59.3917L15.231 61.0191C14.8023 61.893 14.603 62.8616 14.652 63.8338C14.701 64.806 14.9967 65.7497 15.5112 66.5761C16.0256 67.4024 16.742 68.0842 17.5928 68.5572C18.4435 69.0303 19.4007 69.279 20.3741 69.2799L25.405 69.2799C25.5734 69.2797 25.7393 69.3203 25.8886 69.3982C26.0379 69.476 26.166 69.5889 26.2622 69.7272L29.0448 73.8638C29.5117 74.5445 30.203 75.0393 30.9978 75.2618C31.7925 75.4844 32.6403 75.4204 33.3927 75.0812L52.7219 66.4974C53.3981 66.1991 53.9608 65.6918 54.3275 65.0502C54.6941 64.4085 54.8454 63.6661 54.7591 62.9321C54.4213 59.8721 53.525 56.208 55.3928 53.3669C57.0862 49.9697 58.3705 46.3835 59.2188 42.6836C58.7224 43.4394 58.0458 44.0599 57.25 44.4893C56.4542 44.9187 55.5641 45.1434 54.6598 45.1433Z" fill="#FE9F00"/>
<path d="M52.9188 17.8113C44.7093 18.0673 44.7112 29.979 52.919 30.2337C61.1283 29.9778 61.1264 18.066 52.9188 17.8113Z" fill="#FE9F00"/>
</svg>
