<svg width="81" height="81" viewBox="0 0 81 81" fill="none" xmlns="http://www.w3.org/2000/svg">
<g clip-path="url(#clip0_319_5721)">
<path d="M78.0797 79.1651H2.91405C1.6222 79.1651 0.574867 78.1178 0.574867 76.826C0.574867 71.6584 4.76403 67.4692 9.93159 67.4692H71.0622C76.2298 67.4692 80.4189 71.6584 80.4189 76.826C80.4189 78.1178 79.3716 79.1651 78.0797 79.1651Z" fill="#F50CEA" stroke="#F50CEA" stroke-width="0.155945" stroke-miterlimit="10"/>
<path d="M9.15187 62.7853C4.42251 62.7853 0.574867 58.9377 0.574867 54.2083C0.574867 49.479 4.42251 45.6313 9.15187 45.6313C13.8812 45.6313 17.7289 49.479 17.7289 54.2083C17.7289 58.9377 13.8812 62.7853 9.15187 62.7853Z" fill="#F50CEA" stroke="#F50CEA" stroke-width="0.155945" stroke-miterlimit="10"/>
<path d="M62.7018 47.9165V48.7525H69.7198V43.8647L62.7018 47.9165Z" fill="#F50CEA" stroke="#F50CEA" stroke-width="0.155945" stroke-miterlimit="10"/>
<path d="M75.739 53.43H58.0216V45.2146L69.1043 38.816C71.3119 37.5415 72.1788 34.7331 70.9652 32.4914C69.7061 30.1654 66.7857 29.3505 64.5102 30.6642L51.0048 38.4614C49.5054 39.3272 48.6866 40.8985 48.6852 42.5138H48.665V48.7516H23.8092C22.9662 48.7516 22.1579 48.9006 21.4091 49.1732C22.0498 50.727 22.4057 52.4273 22.4057 54.2097C22.4057 56.9913 21.5427 59.5741 20.0729 61.7084C21.155 62.3906 22.4355 62.7867 23.8092 62.7867H75.6417C78.191 62.7867 80.3458 60.788 80.4155 58.2398C80.488 55.5959 78.3666 53.43 75.739 53.43Z" fill="#F50CEA" stroke="#F50CEA" stroke-width="0.155945" stroke-miterlimit="10"/>
<path d="M62.1367 22.4595C60.6529 21.5139 59.0366 20.8205 57.3473 20.396C54.8007 22.9776 51.2643 24.5805 47.3602 24.5805C43.4073 24.5805 39.8313 22.9372 37.278 20.2986C29.9634 21.9365 24.4971 28.4676 24.4971 36.2764V39.3953C24.4971 41.9792 26.5916 44.0737 29.1754 44.0737H30.7349H41.6508C42.9426 44.0737 43.9899 43.0264 43.9899 41.7345V41.7336C43.9899 40.4422 42.9431 39.3953 41.6517 39.3953H33.8538C32.5619 39.3953 31.5146 38.348 31.5146 37.0562V32.4439C31.5146 31.1844 32.4826 30.1005 33.7407 30.0413C35.084 29.978 36.193 31.0484 36.193 32.3778V34.717H41.6508C43.4073 34.717 45.014 35.3673 46.2463 36.4377C46.925 35.6382 47.739 34.9475 48.6691 34.4104L62.1744 26.6131L65.1277 24.908C64.2345 23.9823 63.2328 23.1583 62.1367 22.4595Z" fill="#F50CEA" stroke="#F50CEA" stroke-width="0.155945" stroke-miterlimit="10"/>
<path d="M47.361 19.9014C42.2017 19.9014 38.0042 15.704 38.0042 10.5447C38.0042 5.38542 42.2017 1.18799 47.361 1.18799C52.5203 1.18799 56.7177 5.38542 56.7177 10.5447C56.7177 15.704 52.5203 19.9014 47.361 19.9014Z" fill="#F50CEA" stroke="#F50CEA" stroke-width="0.155945" stroke-miterlimit="10"/>
</g>
<defs>
<clipPath id="clip0_319_5721">
<rect width="80" height="80" fill="white" transform="translate(0.5 0.171387)"/>
</clipPath>
</defs>
</svg>
