<svg width="80" height="81" viewBox="0 0 80 81" fill="none" xmlns="http://www.w3.org/2000/svg">
<g clip-path="url(#clip0_319_5683)">
<path d="M21.6745 21.5789H20.6714L18.7968 30.9539H23.549L21.6745 21.5789Z" fill="#007CBA"/>
<path d="M59.5898 40.3289C60.6018 43.0475 61.9479 45.2481 63.4376 47.1206C64.9273 45.2481 66.4297 43.0473 67.4417 40.3289H59.5898Z" fill="#007CBA"/>
<path d="M72.9687 14.3894H43.862L49.931 63.0892C50.0384 65.0811 49.4938 66.9564 48.1938 68.4246L37.916 80.1707H72.9687C76.8459 80.1707 79.9999 77.0166 79.9999 73.1394V21.5769C79.9999 17.6997 76.8459 14.3894 72.9687 14.3894ZM72.9687 40.3269H72.3427C71.0091 44.6055 68.8943 47.9535 66.6965 50.5928C68.4182 52.1669 70.2593 53.4582 72.0898 54.9044C73.0991 55.7124 73.264 57.1863 72.4537 58.198C71.6471 59.2082 70.1674 59.3719 69.1601 58.5619C67.1712 56.9921 65.3043 55.678 63.4374 53.9649C61.5705 55.678 59.8599 56.9921 57.871 58.5619C56.8637 59.3719 55.384 59.2082 54.5774 58.198C53.7671 57.1863 53.932 55.7124 54.9413 54.9044C56.7718 53.4582 58.4566 52.1669 60.1784 50.5928C57.9805 47.9536 56.0218 44.6057 54.6884 40.3269H54.0624C52.767 40.3269 51.7187 39.2786 51.7187 37.9832C51.7187 36.6877 52.767 35.6394 54.0624 35.6394H61.0937V33.2957C61.0937 32.0002 62.142 30.9519 63.4374 30.9519C64.7329 30.9519 65.7812 32.0002 65.7812 33.2957V35.6394H72.9687C74.2641 35.6394 75.3124 36.6877 75.3124 37.9832C75.3124 39.2786 74.2641 40.3269 72.9687 40.3269Z" fill="#007CBA"/>
<path d="M38.1506 6.33378C37.7134 2.82269 34.7128 0.174561 31.1743 0.174561H7.03122C3.15403 0.174561 -3.05176e-05 3.32862 -3.05176e-05 7.20581V59.0808C-3.05176e-05 62.958 3.15403 66.1121 7.03122 66.1121C21.0422 66.1121 31.1214 66.1121 43.9923 66.1121C44.6761 65.3305 45.2492 64.8411 45.2734 63.821C45.2794 63.5652 38.1823 6.58753 38.1506 6.33378ZM28.7412 44.9725C27.4984 45.2283 26.2395 44.4214 25.9833 43.1346L24.4853 35.6433H17.8586L16.3606 43.1346C16.1089 44.4025 14.8865 45.2357 13.6026 44.9725C12.3347 44.7185 11.5106 43.4849 11.7647 42.2146L16.452 18.7771C16.6717 17.683 17.6331 16.8933 18.75 16.8933H23.5937C24.7106 16.8933 25.672 17.683 25.8917 18.7771L30.5792 42.2146C30.8333 43.4849 30.0093 44.7185 28.7412 44.9725Z" fill="#007CBA"/>
<path d="M27.3867 70.7976L27.7889 74.0134C28.057 76.167 29.4879 78.3631 31.8417 79.4596C36.2836 74.57 33.5962 77.5281 39.7103 70.7976H27.3867Z" fill="#007CBA"/>
</g>
<defs>
<clipPath id="clip0_319_5683">
<rect width="80" height="80" fill="white" transform="translate(0 0.171387)"/>
</clipPath>
</defs>
</svg>
