<svg width="81" height="81" viewBox="0 0 81 81" fill="none" xmlns="http://www.w3.org/2000/svg">
<path d="M47.174 46.3346C48.299 45.872 49.099 44.7719 49.099 43.4719V41.5592H31.899V43.4719C31.899 44.7719 32.699 45.872 33.824 46.3346C35.0761 53.9404 45.9229 53.9394 47.174 46.3346Z" fill="#8B5CF6"/>
<path d="M29.7641 35.0572C30.9517 36.0572 31.7141 37.4823 31.8642 39.0575H49.1391C49.2892 37.4823 50.0642 36.0323 51.2892 35.0197C64.0725 24.2324 55.1946 3.49988 38.564 5.28017C23.9068 6.92807 18.3325 25.7266 29.7641 35.0572ZM43.4142 13.0557C44.8315 10.5015 49.5759 15.8621 50.0766 17.4684C50.3767 18.0935 50.1142 18.8436 49.4892 19.1311C48.875 19.4326 48.1298 19.1713 47.8141 18.5436C47.0391 16.8684 45.6767 15.5058 44.0016 14.7307C43.3766 14.4307 43.1142 13.6807 43.4142 13.0557Z" fill="#8B5CF6"/>
<path d="M74.2496 66.4235H6.74957C6.06209 66.4235 5.49957 66.986 5.49957 67.6735V70.1737C5.49957 70.8613 6.06209 71.4238 6.74957 71.4238H35.6621C36.2121 73.5739 38.1746 75.1741 40.4996 75.1741C42.8246 75.1741 44.7871 73.5739 45.3371 71.4238H74.2496C74.9371 71.4238 75.4996 70.8613 75.4996 70.1737V67.6735C75.4996 66.986 74.9371 66.4235 74.2496 66.4235Z" fill="#8B5CF6"/>
<path d="M31.7515 56.4215H9.25153C8.56404 56.4215 8.00153 56.9841 8.00153 57.6716V63.922H39.2515C39.2515 59.7796 35.8937 56.4215 31.7515 56.4215Z" fill="#8B5CF6"/>
<path d="M41.7515 63.922H73.0015V57.6716C73.0015 56.9841 72.439 56.4215 71.7515 56.4215H49.2515C45.1094 56.4215 41.7515 59.7796 41.7515 63.922Z" fill="#8B5CF6"/>
</svg>
