<svg width="81" height="81" viewBox="0 0 81 81" fill="none" xmlns="http://www.w3.org/2000/svg">
<path d="M45.3405 25.0649C45.3111 26.3671 45.1199 28.1425 44.4217 29.6622C44.0932 30.3777 44.6963 31.175 45.4732 31.046C47.5205 30.7058 50.4336 29.6436 53.1133 26.4564C60.6205 25.9241 66.5288 20.2521 66.5288 13.333C66.5289 6.06236 60.0052 0.168457 51.9575 0.168457C43.91 0.168457 37.3861 6.06236 37.3861 13.333C37.3861 18.4511 40.6191 22.8869 45.3405 25.0649Z" fill="#ED1E84"/>
<path d="M23.4834 22.6438C25.7789 25.4571 28.9329 26.3236 30.9167 26.5822C31.6567 26.6788 32.2167 25.9587 31.9684 25.2552C31.5209 23.9882 31.5454 22.534 31.5212 21.4588C32.5392 20.9893 33.312 20.3957 33.9698 19.7013C33.1385 17.6815 32.7057 15.5276 32.7057 13.3329C32.7057 10.8652 33.2395 8.47381 34.2921 6.22553C34.5271 5.72365 34.7862 5.2349 35.0671 4.75881C32.8792 2.02771 29.4212 0.259277 25.3545 0.259277C18.5018 0.259277 12.9467 5.27803 12.9467 11.4691C12.9468 17.3608 17.0909 22.1905 23.4834 22.6438Z" fill="#ED1E84"/>
<path d="M76.6046 62.6849H62.9863C63.5885 63.8582 63.9305 65.186 63.9305 66.5931C63.9305 71.3281 60.0805 75.1801 55.3485 75.1801H53.5137L53.4888 80.171H67.5134C68.9419 80.171 70.1001 79.0134 70.1001 77.5854V72.8406C70.1001 71.5485 71.148 70.501 72.4405 70.501H76.6044C78.7554 70.501 80.5054 68.7478 80.5054 66.5929C80.5054 64.4381 78.7555 62.6849 76.6046 62.6849Z" fill="#ED1E84"/>
<path d="M59.2478 66.5931C59.2478 64.4382 57.4978 62.6849 55.3468 62.6849H25.715C23.564 62.6849 21.814 64.4382 21.814 66.5931C21.814 68.7479 23.564 70.5012 25.715 70.5012H29.8789C31.1715 70.5012 32.2193 71.5487 32.2193 72.8407V80.171H48.8059L48.8423 72.829C48.8487 71.5415 49.8948 70.5012 51.1828 70.5012H55.3465C57.4976 70.5012 59.2478 68.7479 59.2478 66.5931Z" fill="#ED1E84"/>
<path d="M17.1346 66.5931C17.1346 65.186 17.4768 63.8582 18.0789 62.6849H4.40636C2.25542 62.6849 0.505424 64.4382 0.505424 66.5931C0.505424 68.7479 2.25542 70.5012 4.40636 70.5012H8.57027C9.86292 70.5012 10.9107 71.5485 10.9107 72.8407V77.5856C10.9107 79.0135 12.0689 80.1712 13.4975 80.1712H27.54V75.1802H25.7165C20.9845 75.1801 17.1346 71.3281 17.1346 66.5931Z" fill="#ED1E84"/>
<path d="M18.8925 57.991H18.9061C22.7901 57.9879 26.1075 55.527 27.3276 51.8098C27.1315 50.8842 27.0275 49.9248 27.0275 48.9415C27.0275 47.8081 27.1656 46.7065 27.424 45.6518C26.1918 42.1824 22.8431 39.892 18.8986 39.892C13.9151 39.892 9.86089 43.9515 9.86089 48.9415C9.86105 53.9295 13.912 57.9877 18.8925 57.991Z" fill="#ED1E84"/>
<path d="M40.5343 39.892C35.5509 39.892 31.4966 43.9515 31.4966 48.9415C31.4966 53.9295 35.5476 57.9877 40.528 57.991H40.5402C44.5748 57.9884 47.9987 55.3245 49.154 51.6613C49.6268 50.1101 49.7676 48.0824 49.1535 46.2199C47.9971 42.5559 44.5709 39.892 40.5343 39.892Z" fill="#ED1E84"/>
<path d="M53.6832 45.8232C53.9152 46.8256 54.0378 47.8695 54.0378 48.9413C54.0378 50.0134 53.9152 51.0571 53.6832 52.0596C54.9747 55.5795 58.3722 57.9877 62.1614 57.991H62.175C67.1557 57.9877 71.2064 53.9295 71.2064 48.9415C71.2064 43.9515 67.1522 39.892 62.1689 39.892C58.3766 39.892 54.9757 42.3012 53.6832 45.8232Z" fill="#ED1E84"/>
</svg>
