<svg width="80" height="81" viewBox="0 0 80 81" fill="none" xmlns="http://www.w3.org/2000/svg">
<path d="M76 36.1716H72C71.2636 36.1716 70.6667 36.7686 70.6667 37.505V61.505C70.6667 62.2413 71.2636 62.8383 72 62.8383H76C76.7364 62.8383 77.3333 62.2413 77.3333 61.505V37.505C77.3333 36.7686 76.7364 36.1716 76 36.1716Z" fill="#10B981"/>
<path d="M14.0944 64.2714C14.5268 64.8064 15.1147 65.194 15.7768 65.3806C16.4389 65.5673 17.1426 65.5439 17.7908 65.3136C18.439 65.0832 18.9998 64.6574 19.3957 64.0948C19.7916 63.5322 20.0031 62.8607 20.0011 62.1727V60.9167C19.4406 60.6557 18.9184 60.3192 18.4491 59.9167L14.0944 64.2714Z" fill="#10B981"/>
<path d="M40.6505 59.3797C41.0317 59.5553 41.3899 59.777 41.7172 60.0397C42.9505 61.093 45.9025 62.8397 51.9999 62.8397C58.9145 62.8397 62.7132 61.341 64.0265 60.697C64.7472 60.354 65.535 60.175 66.3332 60.173H67.9999V38.733C63.0212 38.0744 54.5772 34.1184 48.2519 30.113L30.1919 48.173H39.9999C42.0859 48.197 44.1543 47.7884 46.0745 46.973C46.3912 46.8155 46.7575 46.7902 47.0928 46.9027C47.4281 47.0153 47.705 47.2564 47.8625 47.573C48.0201 47.8897 48.0454 48.256 47.9328 48.5913C47.8203 48.9266 47.5792 49.2035 47.2625 49.361C44.9749 50.3664 42.4985 50.8706 39.9999 50.8397H22.6665C21.6057 50.8397 20.5883 51.2611 19.8381 52.0113C19.088 52.7614 18.6665 53.7788 18.6665 54.8397C18.6932 55.8922 19.1232 56.8942 19.8676 57.6386C20.6121 58.383 21.6141 58.813 22.6665 58.8397H38.3465C39.0548 58.8447 39.7549 58.9902 40.4065 59.2677C40.4915 59.2966 40.5733 59.3341 40.6505 59.3797Z" fill="#10B981"/>
<path d="M2.76712 65.4043L9.41645 63.7323L4.44045 58.7537L2.76712 65.4043Z" fill="#10B981"/>
<path d="M16.7679 57.8233C16.2743 56.904 16.0112 55.8786 16.0012 54.8353C16.0033 53.0678 16.7064 51.3733 17.9562 50.1235C19.206 48.8738 20.9004 48.1707 22.6679 48.1686H26.4212L47.7546 26.8352L41.3346 20.4099L5.60123 56.1379L12.0252 62.5686L16.7679 57.8233Z" fill="#10B981"/>
<path d="M26.1226 24.7212L8.6453 44.7066C7.92852 45.5259 7.4215 46.5071 7.16787 47.5657C6.91425 48.6243 6.9216 49.7287 7.1893 50.7839L36.0013 21.9826C34.2664 21.4327 32.4091 21.3988 30.6553 21.885C28.9015 22.3712 27.3268 23.3566 26.1226 24.7212Z" fill="#10B981"/>
<path d="M22.6656 62.1713C22.6656 63.0554 23.0167 63.9032 23.6419 64.5283C24.267 65.1535 25.1148 65.5046 25.9989 65.5046C26.8829 65.5046 27.7308 65.1535 28.3559 64.5283C28.981 63.9032 29.3322 63.0554 29.3322 62.1713V61.5046H22.6656V62.1713Z" fill="#10B981"/>
<path d="M47.6019 15.0363C47.5455 14.9748 47.4771 14.9255 47.401 14.8913C47.3249 14.8572 47.2426 14.8389 47.1592 14.8376C47.0791 14.8378 46.9999 14.8541 46.9263 14.8858C46.8528 14.9174 46.7864 14.9636 46.7312 15.0216L43.2232 18.527L49.6445 24.9496L53.1365 21.4576C53.1984 21.3996 53.2479 21.3296 53.282 21.2519C53.3162 21.1743 53.3343 21.0905 53.3352 21.0056C53.3352 20.9267 53.3189 20.8486 53.2872 20.7764C53.2556 20.7041 53.2093 20.6391 53.1512 20.5856L47.6019 15.0363Z" fill="#10B981"/>
<path d="M31.9995 61.5046V62.1713C31.9995 63.0554 32.3507 63.9032 32.9759 64.5283C33.601 65.1535 34.4488 65.5046 35.3329 65.5046C36.2169 65.5046 37.0648 65.1535 37.6899 64.5283C38.315 63.9032 38.6662 63.0554 38.6662 62.1713V61.5313C38.5601 61.5164 38.4533 61.5075 38.3462 61.5046H31.9995Z" fill="#10B981"/>
</svg>
