<svg width="24" height="20" viewBox="0 0 24 20" fill="none" xmlns="http://www.w3.org/2000/svg">
<path fill-rule="evenodd" clip-rule="evenodd" d="M10.8 15C10.8 14.4477 11.3372 14 12 14H19.2C19.8627 14 20.4 14.4477 20.4 15C20.4 15.5523 19.8627 16 19.2 16H12C11.3372 16 10.8 15.5523 10.8 15ZM3.59998 5C3.59998 4.44771 4.13723 4 4.79998 4H19.2C19.8627 4 20.4 4.44771 20.4 5C20.4 5.55228 19.8627 6 19.2 6H4.79998C4.13723 6 3.59998 5.55228 3.59998 5ZM3.59998 10C3.59998 9.44772 4.13723 9 4.79998 9H19.2C19.8627 9 20.4 9.44772 20.4 10C20.4 10.5523 19.8627 11 19.2 11H4.79998C4.13723 11 3.59998 10.5523 3.59998 10Z" fill="black"/>
</svg>
