<svg width="50" height="51" viewBox="0 0 50 51" fill="none" xmlns="http://www.w3.org/2000/svg">
<g clip-path="url(#clip0_319_6020)">
<path d="M46.1062 16.7193L14.878 8.11031L14.8703 8.10823C13.6409 7.77515 12.3346 8.60892 11.9661 9.96896L6.95114 28.4794C6.58267 29.8394 7.2818 31.2165 8.51122 31.5496L28.6074 37.0437L30.8413 37.6572L39.7637 40.0992L39.7714 40.1013C41.0008 40.4344 42.3072 39.6006 42.6757 38.2406L47.6719 19.7993C48.0348 18.4295 47.3412 17.0621 46.1062 16.7193ZM42.0554 38.0643C41.7785 39.0862 40.8237 39.7183 39.9324 39.4768L31.0079 37.0425L28.774 36.429L8.68544 30.937C7.79412 30.6955 7.29666 29.67 7.57353 28.648L12.5864 10.1453C12.8633 9.12332 13.8104 8.48914 14.7094 8.73271L14.7171 8.73479L45.9397 17.334C46.8289 17.5832 47.3264 18.6087 47.0516 19.623L42.0554 38.0643Z" fill="white"/>
<path d="M41.4721 19.5464L10.2439 10.9375C9.00677 10.6023 7.70041 11.4361 7.32986 12.8038L2.31491 31.3142C1.94643 32.6743 2.64556 34.0514 3.87498 34.3845L23.9712 39.8785L26.2051 40.492L35.1275 42.9341C36.3646 43.2692 37.6633 42.4334 38.0318 41.0733L43.028 22.632C43.3985 21.2643 42.6994 19.8872 41.4721 19.5464Z" fill="#134A8E"/>
<path d="M41.4721 19.5464L10.2439 10.9375L10.2362 10.9354C8.997 10.6079 7.69833 11.4438 7.32986 12.8038L2.31491 31.3142C1.94643 32.6743 2.64556 34.0514 3.87498 34.3845L23.9712 39.8785L26.2051 40.492L35.1275 42.9341L35.1352 42.9361C36.3646 43.2692 37.671 42.4354 38.0394 41.0754L43.0357 22.6341C43.3985 21.2643 42.6994 19.8872 41.4721 19.5464ZM37.4212 40.8914C37.1443 41.9134 36.1895 42.5455 35.2982 42.304L26.3758 39.8619L24.1419 39.2484L4.04152 33.7698C3.15019 33.5283 2.65274 32.5027 2.92962 31.4808L7.94457 12.9703C8.22144 11.9484 9.17624 11.3163 10.0676 11.5578L10.0753 11.5599L41.3034 20.1688C42.1927 20.418 42.6901 21.4435 42.4153 22.4578L37.4212 40.8914Z" fill="white"/>
<path d="M40.0743 24.1573L23.3424 27.1297C22.8704 27.1668 22.4017 27.0398 22.0151 26.7619L9.0699 15.7574C8.93704 15.6389 8.73389 15.6581 8.6231 15.793C8.50463 15.9259 8.52382 16.129 8.65876 16.2398L8.66645 16.2419L21.625 27.2583C21.6326 27.2604 21.6382 27.2701 21.6459 27.2722C22.1639 27.6435 22.7919 27.8219 23.4265 27.7628C23.4342 27.7649 23.444 27.7593 23.4516 27.7614L40.201 24.7854C40.3735 24.7579 40.4926 24.5922 40.465 24.4198C40.4222 24.2433 40.2565 24.1241 40.0743 24.1573C40.0841 24.1517 40.0764 24.1496 40.0743 24.1573Z" fill="white"/>
</g>
<defs>
<clipPath id="clip0_319_6020">
<rect width="40.7597" height="40.7597" fill="white" transform="translate(10.6586 0.51709) rotate(15.159)"/>
</clipPath>
</defs>
</svg>
