<svg width="20" height="21" viewBox="0 0 20 21" fill="none" xmlns="http://www.w3.org/2000/svg">
<g clip-path="url(#clip0_0_66)">
<path d="M10.5786 13.0413C10.3897 13.1593 10.1772 13.2066 9.98825 13.2066C9.79935 13.2066 9.58684 13.1593 9.39794 13.0413L6.10352e-05 7.30336V14.9303C6.10352e-05 16.5596 1.32238 17.8819 2.95165 17.8819H17.0485C18.6777 17.8819 20.0001 16.5596 20.0001 14.9303V7.30336L10.5786 13.0413Z" fill="#134A8E"/>
<path d="M17.048 3.1499H2.9512C1.55805 3.1499 0.377408 4.14164 0.0940552 5.46395L10.0114 11.5088L19.9052 5.46395C19.6218 4.14164 18.4412 3.1499 17.048 3.1499Z" fill="#134A8E"/>
</g>
<defs>
<clipPath id="clip0_0_66">
<rect width="20" height="20" fill="white" transform="translate(0 0.51709)"/>
</clipPath>
</defs>
</svg>
