<svg width="20" height="21" viewBox="0 0 20 21" fill="none" xmlns="http://www.w3.org/2000/svg">
<path d="M16.6249 18.0171C14.8888 18.0171 13.1735 17.6388 11.479 16.8821C9.7846 16.1254 8.24293 15.0524 6.85404 13.6629C5.46516 12.2735 4.39238 10.7318 3.63571 9.03792C2.87904 7.34403 2.50043 5.62876 2.49988 3.89209C2.49988 3.64209 2.58321 3.43376 2.74988 3.26709C2.91654 3.10042 3.12488 3.01709 3.37488 3.01709H6.74988C6.94432 3.01709 7.11793 3.0832 7.27071 3.21542C7.42349 3.34765 7.51377 3.50376 7.54154 3.68376L8.08321 6.60042C8.11099 6.82265 8.10404 7.01015 8.06238 7.16292C8.02071 7.3157 7.94432 7.44765 7.83321 7.55876L5.81238 9.60042C6.09016 10.1143 6.41988 10.6107 6.80154 11.0896C7.18321 11.5685 7.60349 12.0304 8.06238 12.4754C8.49293 12.906 8.94432 13.3054 9.41654 13.6738C9.88877 14.0421 10.3888 14.3788 10.9165 14.6838L12.8749 12.7254C12.9999 12.6004 13.1632 12.5068 13.3649 12.4446C13.5665 12.3824 13.7643 12.3649 13.9582 12.3921L16.8332 12.9754C17.0277 13.031 17.1874 13.1318 17.3124 13.2779C17.4374 13.424 17.4999 13.5871 17.4999 13.7671V17.1421C17.4999 17.3921 17.4165 17.6004 17.2499 17.7671C17.0832 17.9338 16.8749 18.0171 16.6249 18.0171Z" fill="#134A8E"/>
</svg>
