<svg width="21" height="20" viewBox="0 0 21 20" fill="none" xmlns="http://www.w3.org/2000/svg">
<path d="M18.9666 4.99999C18.3249 5.29166 17.6333 5.48333 16.9166 5.57499C17.6499 5.13333 18.2166 4.43333 18.4833 3.59166C17.7916 4.00833 17.0249 4.3 16.2166 4.46666C15.5583 3.74999 14.6333 3.33333 13.5833 3.33333C11.6249 3.33333 10.0249 4.93333 10.0249 6.90833C10.0249 7.19166 10.0583 7.46666 10.1166 7.725C7.14993 7.575 4.50826 6.14999 2.74993 3.99166C2.4416 4.51666 2.2666 5.13333 2.2666 5.78333C2.2666 7.02499 2.8916 8.12499 3.85826 8.74999C3.2666 8.74999 2.7166 8.58333 2.23326 8.33333V8.35833C2.23326 10.0917 3.4666 11.5417 5.09993 11.8667C4.57563 12.0108 4.02496 12.0307 3.4916 11.925C3.71794 12.6354 4.16121 13.257 4.75911 13.7024C5.35701 14.1479 6.07947 14.3947 6.82493 14.4083C5.56132 15.4088 3.99494 15.9495 2.38326 15.9417C2.09993 15.9417 1.8166 15.925 1.53326 15.8917C3.1166 16.9083 4.99993 17.5 7.0166 17.5C13.5833 17.5 17.1916 12.05 17.1916 7.32499C17.1916 7.16666 17.1916 7.01666 17.1833 6.85833C17.8833 6.35833 18.4833 5.72499 18.9666 4.99999Z" fill="white"/>
</svg>
