<svg width="21" height="20" viewBox="0 0 21 20" fill="none" xmlns="http://www.w3.org/2000/svg">
<path d="M7.2499 1.66687H14.2499C16.9166 1.66687 19.0832 3.83354 19.0832 6.5002V13.5002C19.0832 14.7821 18.574 16.0115 17.6676 16.9179C16.7612 17.8243 15.5318 18.3335 14.2499 18.3335H7.2499C4.58323 18.3335 2.41656 16.1669 2.41656 13.5002V6.5002C2.41656 5.21832 2.92579 3.98895 3.83222 3.08252C4.73864 2.17609 5.96802 1.66687 7.2499 1.66687ZM7.08323 3.33354C6.28758 3.33354 5.52452 3.64961 4.96191 4.21222C4.3993 4.77483 4.08323 5.53789 4.08323 6.33354V13.6669C4.08323 15.3252 5.4249 16.6669 7.08323 16.6669H14.4166C15.2122 16.6669 15.9753 16.3508 16.5379 15.7882C17.1005 15.2256 17.4166 14.4625 17.4166 13.6669V6.33354C17.4166 4.6752 16.0749 3.33354 14.4166 3.33354H7.08323ZM15.1249 4.58354C15.4012 4.58354 15.6661 4.69328 15.8615 4.88863C16.0568 5.08398 16.1666 5.34894 16.1666 5.6252C16.1666 5.90147 16.0568 6.16642 15.8615 6.36177C15.6661 6.55712 15.4012 6.66687 15.1249 6.66687C14.8486 6.66687 14.5837 6.55712 14.3883 6.36177C14.193 6.16642 14.0832 5.90147 14.0832 5.6252C14.0832 5.34894 14.193 5.08398 14.3883 4.88863C14.5837 4.69328 14.8486 4.58354 15.1249 4.58354ZM10.7499 5.83354C11.855 5.83354 12.9148 6.27252 13.6962 7.05393C14.4776 7.83533 14.9166 8.89513 14.9166 10.0002C14.9166 11.1053 14.4776 12.1651 13.6962 12.9465C12.9148 13.7279 11.855 14.1669 10.7499 14.1669C9.64483 14.1669 8.58502 13.7279 7.80362 12.9465C7.02222 12.1651 6.58323 11.1053 6.58323 10.0002C6.58323 8.89513 7.02222 7.83533 7.80362 7.05393C8.58502 6.27252 9.64483 5.83354 10.7499 5.83354ZM10.7499 7.5002C10.0869 7.5002 9.45097 7.7636 8.98213 8.23244C8.51329 8.70128 8.2499 9.33716 8.2499 10.0002C8.2499 10.6632 8.51329 11.2991 8.98213 11.768C9.45097 12.2368 10.0869 12.5002 10.7499 12.5002C11.4129 12.5002 12.0488 12.2368 12.5177 11.768C12.9865 11.2991 13.2499 10.6632 13.2499 10.0002C13.2499 9.33716 12.9865 8.70128 12.5177 8.23244C12.0488 7.7636 11.4129 7.5002 10.7499 7.5002Z" fill="white"/>
</svg>
