<svg width="350" height="150" viewBox="0 0 350 150" fill="none" xmlns="http://www.w3.org/2000/svg">
<g clip-path="url(#clip0_471_760)">
<rect width="350" height="150" rx="10.5263" fill="#134A8E"/>
<mask id="path-2-inside-1_471_760" fill="white">
<path d="M31.8909 -4.52129e-06C31.8909 12.8341 36.9893 25.1426 46.0644 34.2177C55.1395 43.2929 67.448 48.3912 80.2821 48.3912C93.1163 48.3912 105.425 43.2929 114.5 34.2178C123.575 25.1426 128.673 12.8342 128.673 5.76868e-06L107.575 2.20558e-06C107.575 7.23858 104.7 14.1807 99.5813 19.2991C94.4628 24.4176 87.5207 27.2931 80.2821 27.2931C73.0436 27.2931 66.1015 24.4176 60.983 19.2991C55.8646 14.1807 52.9891 7.23857 52.9891 -9.58188e-07L31.8909 -4.52129e-06Z"/>
</mask>
<path d="M31.8909 -4.52129e-06C31.8909 12.8341 36.9893 25.1426 46.0644 34.2177C55.1395 43.2929 67.448 48.3912 80.2821 48.3912C93.1163 48.3912 105.425 43.2929 114.5 34.2178C123.575 25.1426 128.673 12.8342 128.673 5.76868e-06L107.575 2.20558e-06C107.575 7.23858 104.7 14.1807 99.5813 19.2991C94.4628 24.4176 87.5207 27.2931 80.2821 27.2931C73.0436 27.2931 66.1015 24.4176 60.983 19.2991C55.8646 14.1807 52.9891 7.23857 52.9891 -9.58188e-07L31.8909 -4.52129e-06Z" stroke="#195196" stroke-width="39.0252" mask="url(#path-2-inside-1_471_760)"/>
<mask id="path-3-inside-2_471_760" fill="white">
<path d="M258.114 -0.231123C258.114 6.5482 260.807 13.0499 265.6 17.8436C270.394 22.6373 276.896 25.3304 283.675 25.3304C290.454 25.3304 296.956 22.6373 301.75 17.8436C306.543 13.0499 309.237 6.54821 309.237 -0.231116L298.092 -0.23112C298.092 3.59248 296.573 7.25948 293.869 9.96317C291.166 12.6669 287.499 14.1858 283.675 14.1858C279.851 14.1858 276.184 12.6669 273.481 9.96317C270.777 7.25948 269.258 3.59248 269.258 -0.231121L258.114 -0.231123Z"/>
</mask>
<path d="M258.114 -0.231123C258.114 6.5482 260.807 13.0499 265.6 17.8436C270.394 22.6373 276.896 25.3304 283.675 25.3304C290.454 25.3304 296.956 22.6373 301.75 17.8436C306.543 13.0499 309.237 6.54821 309.237 -0.231116L298.092 -0.23112C298.092 3.59248 296.573 7.25948 293.869 9.96317C291.166 12.6669 287.499 14.1858 283.675 14.1858C279.851 14.1858 276.184 12.6669 273.481 9.96317C270.777 7.25948 269.258 3.59248 269.258 -0.231121L258.114 -0.231123Z" stroke="#195196" stroke-width="39.0252" mask="url(#path-3-inside-2_471_760)"/>
<mask id="path-4-inside-3_471_760" fill="white">
<path d="M228.454 153.391C228.454 140.557 233.553 128.249 242.628 119.173C251.703 110.098 264.011 105 276.845 105C289.68 105 301.988 110.098 311.063 119.173C320.138 128.249 325.237 140.557 325.237 153.391L304.138 153.391C304.138 146.153 301.263 139.211 296.144 134.092C291.026 128.974 284.084 126.098 276.845 126.098C269.607 126.098 262.665 128.974 257.546 134.092C252.428 139.211 249.552 146.153 249.552 153.391L228.454 153.391Z"/>
</mask>
<path d="M228.454 153.391C228.454 140.557 233.553 128.249 242.628 119.173C251.703 110.098 264.011 105 276.845 105C289.68 105 301.988 110.098 311.063 119.173C320.138 128.249 325.237 140.557 325.237 153.391L304.138 153.391C304.138 146.153 301.263 139.211 296.144 134.092C291.026 128.974 284.084 126.098 276.845 126.098C269.607 126.098 262.665 128.974 257.546 134.092C252.428 139.211 249.552 146.153 249.552 153.391L228.454 153.391Z" stroke="#195196" stroke-width="39.0252" mask="url(#path-4-inside-3_471_760)"/>
<mask id="path-5-inside-4_471_760" fill="white">
<path d="M107.208 149.927C107.208 142.786 104.371 135.937 99.3214 130.887C94.2715 125.837 87.4225 123 80.2809 123C73.1393 123 66.2902 125.837 61.2404 130.887C56.1905 135.937 53.3535 142.786 53.3535 149.927L65.0936 149.927C65.0936 145.899 66.6937 142.037 69.5418 139.188C72.39 136.34 76.253 134.74 80.2809 134.74C84.3088 134.74 88.1717 136.34 91.0199 139.188C93.8681 142.037 95.4682 145.899 95.4682 149.927L107.208 149.927Z"/>
</mask>
<path d="M107.208 149.927C107.208 142.786 104.371 135.937 99.3214 130.887C94.2715 125.837 87.4225 123 80.2809 123C73.1393 123 66.2902 125.837 61.2404 130.887C56.1905 135.937 53.3535 142.786 53.3535 149.927L65.0936 149.927C65.0936 145.899 66.6937 142.037 69.5418 139.188C72.39 136.34 76.253 134.74 80.2809 134.74C84.3088 134.74 88.1717 136.34 91.0199 139.188C93.8681 142.037 95.4682 145.899 95.4682 149.927L107.208 149.927Z" stroke="#195196" stroke-width="39.0252" mask="url(#path-5-inside-4_471_760)"/>
<rect x="314.487" y="-3.1778" width="43.7652" height="88.2356" rx="21.8826" transform="rotate(-15 314.487 -3.1778)" stroke="white" stroke-width="0.38841"/>
<rect x="327.349" y="7.72063" width="43.7652" height="88.2356" rx="21.8826" transform="rotate(-9.37861 327.349 7.72063)" stroke="white" stroke-width="0.38841"/>
<rect x="0.246521" y="-0.142329" width="45.3604" height="91.4517" rx="22.6802" transform="matrix(0.965926 0.258819 0.258819 -0.965926 -38.3532 86.8121)" stroke="white" stroke-width="0.402567"/>
<rect x="0.231394" y="-0.165792" width="45.3604" height="91.4517" rx="22.6802" transform="matrix(0.986633 0.162958 0.162958 -0.986633 -25.0236 75.5165)" stroke="white" stroke-width="0.402567"/>
</g>
<defs>
<clipPath id="clip0_471_760">
<rect width="350" height="150" rx="10.5263" fill="white"/>
</clipPath>
</defs>
</svg>
