<svg width="1064" height="332" viewBox="0 0 1064 332" fill="none" xmlns="http://www.w3.org/2000/svg">
<rect width="1064" height="332" fill="#F5F5F5"/>
<g clip-path="url(#clip0_0_1)">
<rect width="1064" height="307" rx="32" fill="#134A8E"/>
<mask id="path-2-inside-1_0_1" fill="white">
<path d="M96.9454 -6.43831e-07C96.9454 39.0158 112.444 76.4336 140.033 104.022C167.621 131.61 205.039 147.109 244.055 147.109C283.07 147.109 320.488 131.61 348.077 104.022C375.665 76.4336 391.164 39.0158 391.164 3.09212e-05L327.026 1.91979e-05C327.026 22.0053 318.284 43.1093 302.724 58.6693C287.164 74.2294 266.06 82.971 244.055 82.971C222.049 82.971 200.945 74.2294 185.385 58.6693C169.825 43.1093 161.084 22.0053 161.084 1.3949e-06L96.9454 -6.43831e-07Z"/>
</mask>
<path d="M96.9454 -6.43831e-07C96.9454 39.0158 112.444 76.4336 140.033 104.022C167.621 131.61 205.039 147.109 244.055 147.109C283.07 147.109 320.488 131.61 348.077 104.022C375.665 76.4336 391.164 39.0158 391.164 3.09212e-05L327.026 1.91979e-05C327.026 22.0053 318.284 43.1093 302.724 58.6693C287.164 74.2294 266.06 82.971 244.055 82.971C222.049 82.971 200.945 74.2294 185.385 58.6693C169.825 43.1093 161.084 22.0053 161.084 1.3949e-06L96.9454 -6.43831e-07Z" stroke="#195196" stroke-width="118.636" mask="url(#path-2-inside-1_0_1)"/>
<mask id="path-3-inside-2_0_1" fill="white">
<path d="M325.914 307C325.914 285.29 317.289 264.468 301.938 249.117C286.586 233.765 265.765 225.141 244.055 225.141C222.344 225.141 201.523 233.765 186.172 249.117C170.82 264.468 162.196 285.29 162.196 307L197.885 307C197.885 294.755 202.75 283.012 211.408 274.353C220.066 265.695 231.81 260.831 244.055 260.831C256.3 260.831 268.043 265.695 276.701 274.353C285.36 283.012 290.224 294.755 290.224 307H325.914Z"/>
</mask>
<path d="M325.914 307C325.914 285.29 317.289 264.468 301.938 249.117C286.586 233.765 265.765 225.141 244.055 225.141C222.344 225.141 201.523 233.765 186.172 249.117C170.82 264.468 162.196 285.29 162.196 307L197.885 307C197.885 294.755 202.75 283.012 211.408 274.353C220.066 265.695 231.81 260.831 244.055 260.831C256.3 260.831 268.043 265.695 276.701 274.353C285.36 283.012 290.224 294.755 290.224 307H325.914Z" stroke="#195196" stroke-width="118.636" mask="url(#path-3-inside-2_0_1)"/>
<mask id="path-4-inside-3_0_1" fill="white">
<path d="M784.666 -0.702522C784.666 19.9066 792.853 39.6717 807.426 54.2446C821.998 68.8174 841.763 77.0044 862.373 77.0044C882.982 77.0044 902.747 68.8174 917.32 54.2446C931.893 39.6717 940.08 19.9066 940.08 -0.702506L906.2 -0.702512C906.2 10.9212 901.583 22.0689 893.363 30.2881C885.144 38.5074 873.996 43.1249 862.373 43.1249C850.749 43.1249 839.601 38.5074 831.382 30.2881C823.163 22.0689 818.545 10.9212 818.545 -0.702521L784.666 -0.702522Z"/>
</mask>
<path d="M784.666 -0.702522C784.666 19.9066 792.853 39.6717 807.426 54.2446C821.998 68.8174 841.763 77.0044 862.373 77.0044C882.982 77.0044 902.747 68.8174 917.32 54.2446C931.893 39.6717 940.08 19.9066 940.08 -0.702506L906.2 -0.702512C906.2 10.9212 901.583 22.0689 893.363 30.2881C885.144 38.5074 873.996 43.1249 862.373 43.1249C850.749 43.1249 839.601 38.5074 831.382 30.2881C823.163 22.0689 818.545 10.9212 818.545 -0.702521L784.666 -0.702522Z" stroke="#195196" stroke-width="118.636" mask="url(#path-4-inside-3_0_1)"/>
<mask id="path-5-inside-4_0_1" fill="white">
<path d="M694.5 307C694.5 267.984 709.999 230.566 737.588 202.978C765.176 175.39 802.594 159.891 841.609 159.891C880.625 159.891 918.043 175.39 945.631 202.978C973.22 230.566 988.719 267.984 988.719 307L924.58 307C924.58 284.995 915.839 263.891 900.279 248.331C884.719 232.771 863.615 224.029 841.609 224.029C819.604 224.029 798.5 232.771 782.94 248.331C767.38 263.891 758.639 284.995 758.639 307L694.5 307Z"/>
</mask>
<path d="M694.5 307C694.5 267.984 709.999 230.566 737.588 202.978C765.176 175.39 802.594 159.891 841.609 159.891C880.625 159.891 918.043 175.39 945.631 202.978C973.22 230.566 988.719 267.984 988.719 307L924.58 307C924.58 284.995 915.839 263.891 900.279 248.331C884.719 232.771 863.615 224.029 841.609 224.029C819.604 224.029 798.5 232.771 782.94 248.331C767.38 263.891 758.639 284.995 758.639 307L694.5 307Z" stroke="#195196" stroke-width="118.636" mask="url(#path-5-inside-4_0_1)"/>
<rect x="972.427" y="-15.043" width="112.678" height="227.171" rx="56.3389" transform="rotate(-15 972.427 -15.043)" stroke="white"/>
<rect x="1005.54" y="13.0161" width="112.678" height="227.171" rx="56.3389" transform="rotate(-9.37861 1005.54 13.0161)" stroke="white"/>
<rect x="0.612372" y="-0.353553" width="112.678" height="227.171" rx="56.3389" transform="matrix(0.965926 0.258819 0.258819 -0.965926 -96.2012 207.45)" stroke="white"/>
<rect x="0.574795" y="-0.411838" width="112.678" height="227.171" rx="56.3389" transform="matrix(0.986633 0.162958 0.162958 -0.986633 -63.0872 179.391)" stroke="white"/>
</g>
<rect x="32.5" y="103.5" width="999" height="227.171" rx="31.5" stroke="#134A8E"/>
<defs>
<clipPath id="clip0_0_1">
<rect width="1064" height="307" rx="32" fill="white"/>
</clipPath>
</defs>
</svg>
