<svg width="46" height="47" viewBox="0 0 46 47" fill="none" xmlns="http://www.w3.org/2000/svg">
<rect y="0.171387" width="46" height="46" rx="23" fill="#27A9E1"/>
<path d="M29.662 21.1844L18.662 14.9784C18.3028 14.7731 17.8956 14.6666 17.4818 14.6697C17.0681 14.6729 16.6626 14.7856 16.3065 14.9964C15.9596 15.1948 15.6714 15.4814 15.4712 15.8273C15.271 16.1731 15.1659 16.5657 15.1665 16.9654V29.3774C15.1659 29.777 15.271 30.1696 15.4712 30.5155C15.6714 30.8613 15.9596 31.148 16.3065 31.3464C16.6626 31.557 17.0681 31.6697 17.4818 31.6728C17.8956 31.676 18.3027 31.5696 18.662 31.3644L29.662 25.1584C30.0168 24.9618 30.3125 24.6739 30.5183 24.3245C30.7242 23.9751 30.8328 23.5769 30.8328 23.1714C30.8328 22.7658 30.7242 22.3676 30.5183 22.0182C30.3125 21.6688 30.0168 21.3809 29.662 21.1844Z" fill="white"/>
</svg>
