<svg width="16" height="18" viewBox="0 0 16 18" fill="none" xmlns="http://www.w3.org/2000/svg">
<path d="M14.662 7.18436L3.66201 0.978359C3.30277 0.773066 2.89557 0.666584 2.48183 0.669746C2.06809 0.672908 1.66256 0.7856 1.30651 0.996359C0.959622 1.19475 0.671428 1.48142 0.471202 1.82725C0.270975 2.17308 0.16585 2.56575 0.166507 2.96536V15.3774C0.16585 15.777 0.270975 16.1696 0.471202 16.5155C0.671428 16.8613 0.959622 17.148 1.30651 17.3464C1.6626 17.557 2.06811 17.6697 2.48183 17.6728C2.89555 17.676 3.30274 17.5696 3.66201 17.3644L14.662 11.1584C15.0168 10.9618 15.3125 10.6739 15.5183 10.3245C15.7242 9.97509 15.8328 9.57692 15.8328 9.17136C15.8328 8.7658 15.7242 8.36763 15.5183 8.01822C15.3125 7.6688 15.0168 7.38088 14.662 7.18436Z" fill="white"/>
</svg>
