<svg width="18" height="19" viewBox="0 0 18 19" fill="none" xmlns="http://www.w3.org/2000/svg">
<path d="M9 0.458252C4.03759 0.458252 0 4.49585 0 9.45825C0 14.4207 4.03759 18.4583 9 18.4583C13.9624 18.4583 18 14.4207 18 9.45825C18 4.49585 13.9624 0.458252 9 0.458252ZM14.0301 7.08983L8.2782 12.7966C7.93985 13.1349 7.3985 13.1575 7.03759 12.8192L3.99248 10.0447C3.63158 9.70637 3.60902 9.14246 3.92481 8.78156C4.26316 8.42066 4.82707 8.3981 5.18797 8.73645L7.6015 10.947L12.7444 5.80412C13.1053 5.44321 13.6692 5.44321 14.0301 5.80412C14.391 6.16502 14.391 6.72893 14.0301 7.08983Z" fill="#134A8E"/>
</svg>
